<svg width="100%" height="100%" viewBox="0 0 734 734" fill="none" xmlns="http://www.w3.org/2000/svg">
    <path d="M0.333313 367C0.333313 164.496 164.496 0.333092 367 0.333092C569.504 0.333092 733.667 164.496 733.667 367C733.667 569.504 569.504 733.666 367 733.666C164.496 733.666 0.333313 569.504 0.333313 367Z"
          fill="#F3D065"/>
    <path d="M558.836 54.0477C595.351 111.054 616.523 178.83 616.523 251.552C616.523 454.057 452.36 618.218 249.856 618.218C179.525 618.218 113.829 598.402 58.02 564.072C123.185 665.805 237.217 733.234 367 733.234C569.504 733.234 733.667 569.072 733.667 366.568C733.667 234.393 663.721 118.569 558.836 54.0477Z"
          fill="#EFC45C"/>
    <path d="M50.168 405.684C50.168 217.67 202.584 65.2558 390.596 65.2558C500.492 65.2558 598.207 117.345 660.451 198.162C601.665 96.1105 491.485 27.4077 365.256 27.4077C177.244 27.4077 24.8293 179.821 24.8293 367.834C24.8293 445.952 51.1587 517.909 95.4027 575.357C66.6307 525.406 50.168 467.468 50.168 405.684Z"
          fill="#F5D783"/>
    <path d="M258.932 278.042C258.932 303.193 246.836 323.581 231.916 323.581C216.995 323.581 204.899 303.193 204.899 278.042C204.899 252.891 216.995 232.503 231.916 232.503C246.836 232.503 258.932 252.891 258.932 278.042Z"
          fill="#333333"/>
    <path d="M529.101 278.042C529.101 303.193 517.005 323.581 502.084 323.581C487.163 323.581 475.068 303.193 475.068 278.042C475.068 252.891 487.163 232.503 502.084 232.503C517.005 232.503 529.101 252.891 529.101 278.042Z"
          fill="#333333"/>
    <path d="M120.616 401.681C134.581 525.414 239.533 621.588 367 621.588C494.467 621.588 599.419 525.414 613.384 401.681H120.616Z"
          fill="#635445"/>
    <path d="M196.811 553.862C241.217 595.82 301.077 621.588 367 621.588C430.081 621.588 487.625 598.009 531.379 559.218L529.101 553.888C363.645 473.206 199.06 552.768 196.811 553.862Z"
          fill="#D46669"/>
</svg>
