<svg xmlns="http://www.w3.org/2000/svg" viewBox="0 0 1440 320"><path fill=" #e4e2e2" fill-opacity="1" d="M0,0L6.9,48C13.7,96,27,192,41,240C54.9,288,69,288,82,272C96,256,110,224,123,176C137.1,128,151,64,165,69.3C178.3,75,192,149,206,154.7C219.4,160,233,96,247,80C260.6,64,274,96,288,133.3C301.7,171,315,213,329,208C342.9,203,357,149,370,106.7C384,64,398,32,411,53.3C425.1,75,439,149,453,170.7C466.3,192,480,160,494,144C507.4,128,521,128,535,133.3C548.6,139,562,149,576,128C589.7,107,603,53,617,37.3C630.9,21,645,43,658,58.7C672,75,686,85,699,117.3C713.1,149,727,203,741,202.7C754.3,203,768,149,782,144C795.4,139,809,181,823,197.3C836.6,213,850,203,864,186.7C877.7,171,891,149,905,138.7C918.9,128,933,128,946,133.3C960,139,974,149,987,160C1001.1,171,1015,181,1029,202.7C1042.3,224,1056,256,1070,261.3C1083.4,267,1097,245,1111,208C1124.6,171,1138,117,1152,128C1165.7,139,1179,213,1193,224C1206.9,235,1221,181,1234,154.7C1248,128,1262,128,1275,122.7C1289.1,117,1303,107,1317,122.7C1330.3,139,1344,181,1358,186.7C1371.4,192,1385,160,1399,144C1412.6,128,1426,128,1433,128L1440,128L1440,320L1433.1,320C1426.3,320,1413,320,1399,320C1385.1,320,1371,320,1358,320C1344,320,1330,320,1317,320C1302.9,320,1289,320,1275,320C1261.7,320,1248,320,1234,320C1220.6,320,1207,320,1193,320C1179.4,320,1166,320,1152,320C1138.3,320,1125,320,1111,320C1097.1,320,1083,320,1070,320C1056,320,1042,320,1029,320C1014.9,320,1001,320,987,320C973.7,320,960,320,946,320C932.6,320,919,320,905,320C891.4,320,878,320,864,320C850.3,320,837,320,823,320C809.1,320,795,320,782,320C768,320,754,320,741,320C726.9,320,713,320,699,320C685.7,320,672,320,658,320C644.6,320,631,320,617,320C603.4,320,590,320,576,320C562.3,320,549,320,535,320C521.1,320,507,320,494,320C480,320,466,320,453,320C438.9,320,425,320,411,320C397.7,320,384,320,370,320C356.6,320,343,320,329,320C315.4,320,302,320,288,320C274.3,320,261,320,247,320C233.1,320,219,320,206,320C192,320,178,320,165,320C150.9,320,137,320,123,320C109.7,320,96,320,82,320C68.6,320,55,320,41,320C27.4,320,14,320,7,320L0,320Z"></path></svg>