<svg xmlns="http://www.w3.org/2000/svg" viewBox="0 0 1440 320"><path fill="#000000" fill-opacity="1" d="M0,256L6.2,213.3C12.3,171,25,85,37,80C49.2,75,62,149,74,170.7C86.2,192,98,160,111,122.7C123.1,85,135,43,148,69.3C160,96,172,192,185,245.3C196.9,299,209,309,222,272C233.8,235,246,149,258,117.3C270.8,85,283,107,295,144C307.7,181,320,235,332,213.3C344.6,192,357,96,369,53.3C381.5,11,394,21,406,26.7C418.5,32,431,32,443,37.3C455.4,43,468,53,480,96C492.3,139,505,213,517,234.7C529.2,256,542,224,554,208C566.2,192,578,192,591,197.3C603.1,203,615,213,628,202.7C640,192,652,160,665,165.3C676.9,171,689,213,702,197.3C713.8,181,726,107,738,106.7C750.8,107,763,181,775,186.7C787.7,192,800,128,812,128C824.6,128,837,192,849,224C861.5,256,874,256,886,229.3C898.5,203,911,149,923,122.7C935.4,96,948,96,960,96C972.3,96,985,96,997,85.3C1009.2,75,1022,53,1034,69.3C1046.2,85,1058,139,1071,186.7C1083.1,235,1095,277,1108,293.3C1120,309,1132,299,1145,293.3C1156.9,288,1169,288,1182,250.7C1193.8,213,1206,139,1218,133.3C1230.8,128,1243,192,1255,181.3C1267.7,171,1280,85,1292,85.3C1304.6,85,1317,171,1329,192C1341.5,213,1354,171,1366,170.7C1378.5,171,1391,213,1403,245.3C1415.4,277,1428,299,1434,309.3L1440,320L1440,320L1433.8,320C1427.7,320,1415,320,1403,320C1390.8,320,1378,320,1366,320C1353.8,320,1342,320,1329,320C1316.9,320,1305,320,1292,320C1280,320,1268,320,1255,320C1243.1,320,1231,320,1218,320C1206.2,320,1194,320,1182,320C1169.2,320,1157,320,1145,320C1132.3,320,1120,320,1108,320C1095.4,320,1083,320,1071,320C1058.5,320,1046,320,1034,320C1021.5,320,1009,320,997,320C984.6,320,972,320,960,320C947.7,320,935,320,923,320C910.8,320,898,320,886,320C873.8,320,862,320,849,320C836.9,320,825,320,812,320C800,320,788,320,775,320C763.1,320,751,320,738,320C726.2,320,714,320,702,320C689.2,320,677,320,665,320C652.3,320,640,320,628,320C615.4,320,603,320,591,320C578.5,320,566,320,554,320C541.5,320,529,320,517,320C504.6,320,492,320,480,320C467.7,320,455,320,443,320C430.8,320,418,320,406,320C393.8,320,382,320,369,320C356.9,320,345,320,332,320C320,320,308,320,295,320C283.1,320,271,320,258,320C246.2,320,234,320,222,320C209.2,320,197,320,185,320C172.3,320,160,320,148,320C135.4,320,123,320,111,320C98.5,320,86,320,74,320C61.5,320,49,320,37,320C24.6,320,12,320,6,320L0,320Z"></path></svg>